<svg width="96" height="108" viewBox="0 0 96 108" fill="none" xmlns="http://www.w3.org/2000/svg">
<path fill-rule="evenodd" clip-rule="evenodd" d="M0 31.8456V75.4743C0 79.0412 1.89988 82.3381 4.98599 84.1265L43.0296 106.173C46.1237 107.966 49.9397 107.971 53.0378 106.185L84.6865 87.9407L60.2137 56.7506V51.9094C70.3496 50.1756 75.4175 46.2413 75.4175 40.1064C75.4175 35.892 73.0436 33.7848 68.2957 33.7848H54.0121L54.0121 83.8375H28.0056C16.3226 83.8375 10.4811 78.7295 10.4811 68.5136C10.4811 61.6052 15.0289 55.8837 24.1246 51.3493L2.75017 24.9576C1.00911 26.7905 0 29.246 0 31.8456ZM11.5595 19.4219L36.7678 51.5493V56.3905C26.6319 58.1243 21.5639 62.0586 21.5639 68.1935C21.5639 72.4079 23.9379 74.5151 28.6857 74.5151L42.9693 74.5151V24.4625H68.9759C80.6589 24.4625 86.5003 29.5704 86.5003 39.7863C86.5003 46.6947 81.9525 52.4162 72.8569 56.9507L93.422 82.343C95.0574 80.5316 96 78.1534 96 75.641V31.889C96 28.3159 94.0935 25.0143 90.9989 23.2281L53.0752 1.33912C49.9897 -0.441745 46.1898 -0.446671 43.0998 1.32619L11.5595 19.4219Z" fill="url(#paint0_linear_1_124)"/>
<defs>
<linearGradient id="paint0_linear_1_124" x1="15" y1="5" x2="48" y2="107.521" gradientUnits="userSpaceOnUse">
<stop stop-color="#D90000"/>
<stop offset="1" stop-color="#B01616"/>
</linearGradient>
</defs>
</svg>
